<?xml version="1.0" encoding="UTF-8"?>
<svg version="1.1" xmlns="http://www.w3.org/2000/svg" width="1000" height="200" >
<path d="M0 0 C6.91270946 5.69129087 11.68031576 12.4824743 12.828125 21.5234375 C14.13746004 35.52325064 8.86820279 47.22181239 2.828125 59.5234375 C5.138125 59.8534375 7.448125 60.1834375 9.828125 60.5234375 C9.84230469 59.9665625 9.85648437 59.4096875 9.87109375 58.8359375 C10.34105733 51.31652016 12.87314393 46.33066952 18.328125 41.1484375 C23.74560618 37.62707473 28.43278568 36.68786553 34.828125 37.5234375 C41.45277642 39.45817858 45.97368645 43.9292929 49.828125 49.5234375 C51.97903164 53.68374376 52.03995063 57.19076606 51.953125 61.8359375 C51.93507812 63.09019531 51.91703125 64.34445313 51.8984375 65.63671875 C51.87523437 66.58933594 51.85203125 67.54195313 51.828125 68.5234375 C62.06231146 70.65661781 71.30149108 72.14256483 81.78125 71.1484375 C82.48894531 71.0875293 83.19664062 71.02662109 83.92578125 70.96386719 C85.32626404 70.83995877 86.72515189 70.69580664 88.12109375 70.52832031 C93.2845477 70.06565439 95.89162984 71.23914272 99.828125 74.5234375 C102.77249624 78.93999436 103.39910726 83.48657587 102.41210938 88.73608398 C100.23399817 96.07465535 96.95335375 102.70184617 93.515625 109.5234375 C88.3530812 119.98065994 83.99374401 130.30105864 80.828125 141.5234375 C80.51294922 142.55404297 80.51294922 142.55404297 80.19140625 143.60546875 C79.67299012 146.34248292 79.73538878 148.99170484 79.765625 151.7734375 C79.77464844 152.85109375 79.78367188 153.92875 79.79296875 155.0390625 C79.80457031 155.85890625 79.81617188 156.67875 79.828125 157.5234375 C85.17845927 158.88948029 88.50070462 158.47960279 93.44140625 155.98828125 C105.87033446 148.36005199 113.31893962 136.05368081 117.82421875 122.45703125 C123.0649503 107.14267563 130.70735371 89.97209298 145.6328125 82.03125 C156.67932961 76.84495417 168.79946987 75.32674837 180.55859375 79.48046875 C187.48202347 82.66214816 193.18698581 87.4824195 198.828125 92.5234375 C199.488125 92.1934375 200.148125 91.8634375 200.828125 91.5234375 C205.367344 90.97944465 208.7825519 90.90054289 212.765625 93.2734375 C216.17198305 96.98946447 217.05315652 99.31682761 216.99975586 104.40307617 C216.65803513 108.6247612 215.50048116 112.68109204 214.453125 116.7734375 C213.99186269 118.65715445 213.53220729 120.54126567 213.07421875 122.42578125 C212.85620605 123.3163623 212.63819336 124.20694336 212.41357422 125.12451172 C210.62215394 132.465002 209.65710198 139.3531633 209.578125 146.8984375 C209.56869873 147.57753174 209.55927246 148.25662598 209.54956055 148.95629883 C209.57544949 152.88897644 209.90979379 156.05618345 211.828125 159.5234375 C214.59222172 160.79063722 214.59222172 160.79063722 217.828125 160.5234375 C227.42820931 156.23403813 232.15205968 144.75939078 235.828125 135.5234375 C236.42500677 133.73927463 237.00646997 131.9498961 237.57421875 130.15625 C239.85686185 123.24073018 242.5489243 116.52920067 245.35449219 109.81298828 C246.20600272 107.76652136 247.04052198 105.71361708 247.875 103.66015625 C252.33441622 92.85494926 257.67886524 82.42090956 268.703125 77.1484375 C276.5296847 75.58312556 282.99107783 76.13279139 289.828125 80.5234375 C295.2375162 85.39071106 298.69415444 91.31012474 299.828125 98.5234375 C300.25977984 111.52938551 296.18365952 124.1031798 292.828125 136.5234375 C292.54146973 137.59078125 292.25481445 138.658125 291.95947266 139.7578125 C290.27456096 146.02014719 288.56514985 152.27536097 286.828125 158.5234375 C301.17196184 157.06936323 311.46466776 148.83040331 320.765625 138.0859375 C333.98758974 121.5322891 344.88473286 103.14333025 352.37890625 83.30859375 C354.08601126 80.02782321 355.7105563 78.4899756 358.828125 76.5234375 C362.98430526 75.61961063 366.76945138 76.10917391 370.703125 77.6484375 C373.46739972 80.08750343 374.62006659 82.03349098 375.828125 85.5234375 C375.4185574 91.4509977 373.51604667 96.54322603 371.390625 102.0234375 C366.26244257 114.39437425 366.26244257 114.39437425 365.828125 127.5234375 C367.55834894 130.83710562 367.55834894 130.83710562 370.828125 132.5234375 C376.84486903 133.15256473 383.06432515 131.17960487 387.828125 127.5234375 C392.68422625 122.25018218 395.68161707 115.91558185 398.765625 109.5234375 C402.02850645 102.76146215 405.73220882 97.09082624 410.828125 91.5234375 C411.44171875 90.81832031 412.0553125 90.11320312 412.6875 89.38671875 C420.33010332 81.09670481 430.28627065 75.19072091 441.625 74.1875 C451.70917626 74.08785399 459.47109985 75.15049574 468.203125 80.6484375 C474.29114671 87.3162708 477.20854168 95.27276992 477.0390625 104.2890625 C476.088633 114.35657499 471.3867392 122.8576041 463.640625 129.2734375 C453.09002973 136.91596953 442.48522264 139.65352072 429.703125 139.7734375 C428.55638306 139.7875769 428.55638306 139.7875769 427.38647461 139.80200195 C422.50279269 139.77396218 418.46228977 139.07225649 413.828125 137.5234375 C413.91197527 144.69990806 413.91197527 144.69990806 417.015625 150.9609375 C423.98423398 157.31011457 432.70978256 158.36955008 441.828125 158.5234375 C455.91350396 157.84434468 469.52729412 152.04854044 479.58203125 142.109375 C489.09310574 131.15923358 491.15671116 120.37953091 493.56640625 106.3828125 C499.83630624 70.70733336 514.11000117 21.86438429 543.984375 -1.13671875 C551.45718585 -5.73045008 561.30737539 -5.83458285 569.828125 -4.4765625 C579.36164019 -0.4857887 583.61162145 5.30756166 587.828125 14.5234375 C592.72540488 29.24513862 586.20003853 45.0587831 579.69555664 58.12646484 C572.52363112 71.90621425 563.13355491 83.96236828 552.828125 95.5234375 C552.13589844 96.30074219 551.44367187 97.07804687 550.73046875 97.87890625 C546.06574566 102.81326651 540.87163086 106.99810499 535.515625 111.1484375 C534.4172229 112.00139404 534.4172229 112.00139404 533.29663086 112.87158203 C528.93056174 116.17649748 524.73027968 118.6161081 519.765625 120.8984375 C516.87189839 122.31912437 516.87189839 122.31912437 514.828125 124.5234375 C512.78337539 132.84575952 514.58498342 141.70352602 517.828125 149.5234375 C518.22 150.4721875 518.611875 151.4209375 519.015625 152.3984375 C522.47729223 156.45694391 526.407123 158.19375497 531.66796875 158.91015625 C542.23747235 159.30464223 549.66683025 155.8860169 557.8203125 149.40234375 C568.95573658 138.98183989 573.54924854 125.73943596 575.8828125 111.1484375 C581.52671242 75.87096195 596.44503647 21.92673376 626.578125 -0.4765625 C632.4396098 -4.08363007 636.88011889 -4.84039734 643.640625 -4.8515625 C644.79401367 -4.88830078 644.79401367 -4.88830078 645.97070312 -4.92578125 C652.76947376 -4.96020541 657.75591217 -3.00727019 663 1.3125 C670.57993621 10.13074262 672.78650008 18.64913312 672.2578125 30.17578125 C670.28379234 54.9928137 651.44169881 79.17825677 634.828125 96.5234375 C634.13589844 97.26722656 633.44367187 98.01101562 632.73046875 98.77734375 C625.69634379 106.11785528 617.73354941 112.73608652 608.91796875 117.83984375 C602.4179918 121.29651434 602.4179918 121.29651434 597.65625 126.62890625 C597.27733598 129.10538005 597.44509095 131.04520718 597.828125 133.5234375 C597.99054688 135.13025391 597.99054688 135.13025391 598.15625 136.76953125 C599.05944707 144.13727774 600.06411206 150.27102514 605.828125 155.3359375 C611.6405703 159.57417886 617.87502655 159.41372841 624.828125 158.5234375 C636.47727469 154.40406347 645.16041048 147.61408154 650.828125 136.5234375 C651.65898217 134.53099362 652.47042229 132.53037768 653.265625 130.5234375 C656.71863039 121.99311578 661.00967726 116.3915276 668.828125 111.5234375 C672.55712816 110.28043645 675.96161714 109.8522701 679.828125 110.5234375 C682.85204052 112.26251338 685.24561161 114.35841072 686.828125 117.5234375 C687.3622125 121.33834825 687.66042124 124.99238508 685.78125 128.44921875 C684.453125 130.0859375 684.453125 130.0859375 681.828125 132.5234375 C681.168125 132.5234375 680.508125 132.5234375 679.828125 132.5234375 C679.725 133.3896875 679.621875 134.2559375 679.515625 135.1484375 C678.828125 138.5234375 678.828125 138.5234375 677.265625 141.5859375 C675.75063833 144.68177983 675.22296969 146.15185793 675.828125 149.5234375 C679.01173692 154.47572271 682.43099391 156.87805605 688.078125 158.3984375 C695.07374495 158.63162483 701.02630113 156.28991946 706.1875 151.55078125 C709.56915214 147.37202539 711.66803166 142.41331913 713.828125 137.5234375 C713.126875 137.03875 712.425625 136.5540625 711.703125 136.0546875 C700.86871732 128.39994294 690.86933828 120.07066031 687.828125 106.5234375 C687.10701744 99.02906963 687.65591076 91.64891814 692.375 85.51171875 C697.95602174 79.62201218 703.6383612 76.79982385 711.828125 76.5234375 C720.77604512 76.36442761 726.40114252 79.28018354 732.8046875 85.41796875 C741.73316997 95.04933176 744.08777969 105.36405658 743.99609375 118.2734375 C743.828125 120.5234375 743.828125 120.5234375 742.828125 122.5234375 C747.4287838 122.77438253 750.88111183 122.66441576 755.203125 121.0234375 C760.09618999 119.25414583 764.66470008 118.7110105 769.828125 119.5234375 C772.98149991 121.29721089 774.3371764 122.72006706 776.203125 125.7734375 C777.07002135 129.58778145 777.15915398 132.85411437 775.828125 136.5234375 C771.19543781 142.65453094 764.3155615 144.58345798 757.10546875 146.09375 C753.03017651 146.6280553 749.05705021 146.63115024 744.953125 146.5859375 C744.169375 146.58142578 743.385625 146.57691406 742.578125 146.57226562 C740.66142486 146.56057843 738.74476452 146.54264658 736.828125 146.5234375 C736.415625 147.41804687 736.003125 148.31265625 735.578125 149.234375 C728.53342248 164.14514477 719.98656174 174.77725494 704.15234375 180.796875 C694.33361504 183.8662591 682.61307879 183.71216203 673.2265625 179.30078125 C667.60993763 176.1191584 663.12056246 172.32755624 658.828125 167.5234375 C656.30119838 169.01251926 653.82069448 170.52846263 651.390625 172.171875 C638.33385622 180.96927104 624.66188074 185.3987057 608.953125 182.8984375 C598.42572389 180.50209031 589.4636212 175.07816915 582.828125 166.5234375 C581.5859375 163.74609375 581.5859375 163.74609375 580.828125 161.5234375 C580.3434375 161.95914063 579.85875 162.39484375 579.359375 162.84375 C566.02169345 174.69376707 551.77811925 183.98597985 533.27734375 183.671875 C520.89513086 182.92143786 510.34061924 178.74530626 501.828125 169.5234375 C499.65905992 166.61744646 497.69023318 163.63400458 495.828125 160.5234375 C494.94125 161.3484375 494.054375 162.1734375 493.140625 163.0234375 C475.67984358 177.91438617 454.44177911 184.16144866 431.828125 182.5234375 C418.59979526 180.84542527 405.59277602 175.99952926 396.828125 165.5234375 C394.524244 161.64070637 392.59316886 157.67648187 390.828125 153.5234375 C390.26867187 153.74 389.70921875 153.9565625 389.1328125 154.1796875 C378.91616834 157.72758965 368.39794355 158.03812917 358.31640625 153.87109375 C354.30902019 151.70068842 350.80478091 148.98625211 347.828125 145.5234375 C347.828125 144.8634375 347.828125 144.2034375 347.828125 143.5234375 C347.168125 143.5234375 346.508125 143.5234375 345.828125 143.5234375 C345.5703125 144.08804688 345.3125 144.65265625 345.046875 145.234375 C335.90115337 162.41191626 318.02898672 175.44744193 299.828125 181.5234375 C294.96478811 182.84592385 290.02262064 182.78067265 285.015625 182.8359375 C284.15130859 182.86494141 283.28699219 182.89394531 282.39648438 182.92382812 C276.36922794 182.98296347 271.8434579 181.97091543 266.828125 178.5234375 C261.81532192 173.12503418 261.33495145 169.38021602 261.38671875 162.14111328 C262.05790871 152.05446376 265.59325685 142.1360454 268.328125 132.4609375 C269.26106221 129.11281514 270.1888562 125.76339281 271.10998535 122.41200256 C271.68091603 120.33972863 272.25928622 118.26948597 272.84606934 116.2016449 C273.10633911 115.26619339 273.36660889 114.33074188 273.63476562 113.36694336 C273.86570923 112.54979355 274.09665283 111.73264374 274.33459473 110.89073181 C274.85935094 108.37365745 274.91515603 106.08738105 274.828125 103.5234375 C266.50676771 121.00218244 266.50676771 121.00218244 260.078125 139.2109375 C256.66874337 151.08063651 251.14140935 162.31399635 242.828125 171.5234375 C242.28671875 172.15636719 241.7453125 172.78929687 241.1875 173.44140625 C235.75415552 179.39523466 227.98581241 184.11431015 219.82421875 184.76171875 C210.15350713 184.96341306 202.42735624 184.07741861 195.015625 177.4609375 C190.18976272 172.19013756 187.47665997 165.40511256 185.828125 158.5234375 C185.00570313 159.45285156 184.18328125 160.38226563 183.3359375 161.33984375 C177.07734606 168.31235728 171.07414015 174.86076925 162.828125 179.5234375 C162.22355469 179.87921875 161.61898438 180.235 160.99609375 180.6015625 C153.45957384 184.21383784 143.23793293 183.83890563 135.37109375 181.4921875 C128.3079633 178.2937888 123.94291939 174.04335819 119.828125 167.5234375 C118.6215625 168.3278125 118.6215625 168.3278125 117.390625 169.1484375 C116.84148437 169.51195312 116.29234375 169.87546875 115.7265625 170.25 C114.3888432 171.14731788 113.06157298 172.06031101 111.7421875 172.984375 C100.43886657 180.79754771 89.97461952 184.14356752 76.140625 182.1328125 C68.53785872 180.27963822 62.73469038 175.91540231 58.4140625 169.38671875 C51.64129873 155.81682874 55.42033055 139.96238343 59.890625 126.2734375 C63.37818109 115.96392297 67.93572949 106.23057145 72.828125 96.5234375 C71.90700928 96.41068481 71.90700928 96.41068481 70.96728516 96.2956543 C68.1280511 95.94294945 65.29066489 95.57701293 62.453125 95.2109375 C61.00486328 95.03401367 61.00486328 95.03401367 59.52734375 94.85351562 C53.05381355 94.00630865 47.01763234 92.60048189 40.828125 90.5234375 C40.57675781 91.33554688 40.32539063 92.14765625 40.06640625 92.984375 C38.60637219 97.15721683 36.84753957 101.12792717 35.015625 105.1484375 C34.63035645 105.99656006 34.24508789 106.84468262 33.84814453 107.71850586 C32.98858731 109.6062761 32.1271549 111.49319328 31.26416016 113.37939453 C29.97862272 116.1939391 28.70127976 119.01207746 27.42604065 121.83129883 C26.30345918 124.30748809 25.17305944 126.78005846 24.04092407 129.25189209 C23.22554379 131.03686001 22.41771619 132.82527196 21.61010742 134.61376953 C16.21470609 146.33692437 9.88135456 156.30587539 0.828125 165.5234375 C0.06757813 166.30847656 -0.69296875 167.09351563 -1.4765625 167.90234375 C-12.22313202 178.31418406 -26.17589937 184.41155517 -41.171875 184.8984375 C-54.60037023 184.47770136 -66.06949126 179.73005554 -75.3515625 169.921875 C-86.6690821 155.00995003 -87.10622385 135.08207207 -84.73681641 117.24902344 C-82.73603705 105.50228126 -79.7527479 93.88620736 -76.171875 82.5234375 C-77.34105469 82.56984375 -78.51023437 82.61625 -79.71484375 82.6640625 C-81.2629952 82.70159344 -82.81117439 82.73799219 -84.359375 82.7734375 C-85.12830078 82.80695313 -85.89722656 82.84046875 -86.68945312 82.875 C-90.7164643 82.94413324 -92.66053492 82.85109884 -96.140625 80.62109375 C-99.24894513 77.41115547 -100.04976778 75.62240246 -100.546875 71.1484375 C-100.10018885 66.83047143 -98.9403039 64.83017202 -96.171875 61.5234375 C-92.97041104 59.47859201 -90.29060258 59.22935434 -86.53125 59.109375 C-85.46132812 59.07070313 -84.39140625 59.03203125 -83.2890625 58.9921875 C-82.17789063 58.96125 -81.06671875 58.9303125 -79.921875 58.8984375 C-78.23191406 58.84042969 -78.23191406 58.84042969 -76.5078125 58.78125 C-73.72932952 58.68706414 -70.95085166 58.60144164 -68.171875 58.5234375 C-67.95160645 57.98678467 -67.73133789 57.45013184 -67.50439453 56.8972168 C-52.64260979 20.91183108 -52.64260979 20.91183108 -41.171875 8.5234375 C-40.61113281 7.87246094 -40.05039063 7.22148437 -39.47265625 6.55078125 C-29.47248613 -4.4284265 -12.83604904 -8.72666643 0 0 Z M551.8203125 23.51171875 C536.87847316 41.67901049 527.20790237 67.72342863 521.828125 90.5234375 C534.22360294 85.01147521 545.04176034 69.85626651 551.828125 58.5234375 C552.21436035 57.87987305 552.6005957 57.23630859 552.99853516 56.57324219 C562.79747596 41.09327344 562.79747596 41.09327344 565.828125 23.5234375 C564.7725394 21.03819957 563.63419906 19.59511069 561.828125 17.5234375 C557.94761483 17.5234375 554.38885627 20.96816081 551.8203125 23.51171875 Z M643.828125 17.5234375 C628.34706155 24.29640276 620.46797003 46.9952353 614.71240234 61.64624023 C607.90994621 75.84725218 607.90994621 75.84725218 606.828125 90.5234375 C625.18305253 74.39253769 646.21248429 51.19588911 649.265625 25.8984375 C648.70782649 21.5954204 647.10983361 20.2308471 643.828125 17.5234375 Z M-25.171875 25.5234375 C-32.99548644 35.90169758 -38.77848269 48.33312982 -43.171875 60.5234375 C-34.13451659 61.6760188 -34.13451659 61.6760188 -25.171875 60.5234375 C-21.01303003 56.85182123 -19.22290572 52.61021131 -17.171875 47.5234375 C-16.42744141 45.94755859 -16.42744141 45.94755859 -15.66796875 44.33984375 C-12.97270262 38.43483049 -10.3813425 32.08675253 -10.171875 25.5234375 C-11.35209264 21.98328278 -11.35209264 21.98328278 -13.171875 19.5234375 C-18.74176347 18.51073051 -21.66129301 21.65047285 -25.171875 25.5234375 Z M-52.171875 83.5234375 C-52.501875 85.8334375 -52.831875 88.1434375 -53.171875 90.5234375 C-49.3766619 89.03246092 -47.56144769 86.76642901 -45.171875 83.5234375 C-47.481875 83.5234375 -49.791875 83.5234375 -52.171875 83.5234375 Z M17.828125 81.5234375 C16.77540405 82.02085449 16.77540405 82.02085449 15.70141602 82.52832031 C12.48126791 83.64356576 10.24529229 83.63542088 6.85546875 83.4453125 C-6.45510298 82.40373464 -6.45510298 82.40373464 -18.1953125 87.3125 C-20.78495095 90.2048766 -22.87562231 93.41395087 -24.93554688 96.69726562 C-33.26126529 108.99512774 -49.37898481 118.44972175 -62.171875 125.5234375 C-63.15511524 141.28499788 -63.15511524 141.28499788 -56.74609375 155.23046875 C-51.04063883 160.34621257 -45.02807431 161.10296015 -37.64453125 160.953125 C-26.83822883 159.61601221 -18.30717793 152.31149685 -11.171875 144.5234375 C-5.03551419 136.63057193 -1.54561679 128.02552201 0.890625 118.3984375 C1.2 117.4496875 1.509375 116.5009375 1.828125 115.5234375 C2.818125 115.1934375 3.808125 114.8634375 4.828125 114.5234375 C6.10839333 112.59630574 6.10839333 112.59630574 7.16796875 110.18359375 C7.59142578 109.28447266 8.01488281 108.38535156 8.45117188 107.45898438 C8.88494141 106.51087891 9.31871094 105.56277344 9.765625 104.5859375 C10.19552734 103.67263672 10.62542969 102.75933594 11.06835938 101.81835938 C13.20510458 97.23684045 15.25497821 92.62031568 17.20703125 87.95703125 C17.71278687 86.7493811 17.71278687 86.7493811 18.22875977 85.51733398 C19.09059526 83.47690688 19.09059526 83.47690688 17.828125 81.5234375 Z M426.828125 108.5234375 C425.24575919 110.80808926 424.05548759 113.01757222 422.828125 115.5234375 C430.13884139 117.96034296 437.89004123 116.62100043 444.828125 113.5234375 C448.06863848 111.31800636 451.05480945 109.07006861 452.828125 105.5234375 C453.16145833 102.5234375 453.16145833 102.5234375 452.828125 99.5234375 C443.48532826 93.29490634 433.26845527 101.65565168 426.828125 108.5234375 Z M153.265625 105.5859375 C143.69438619 117.12050734 136.62067398 133.30955465 137.828125 148.5234375 C138.98328512 152.92254043 140.24351756 156.56301544 143.828125 159.5234375 C147.3964442 160.07850938 149.34374719 159.76562641 152.578125 158.1484375 C162.02904138 151.05411326 168.93154818 141.81290521 175.62548828 132.22558594 C176.67255846 130.74361816 177.76067432 129.29081932 178.85546875 127.84375 C182.54618736 122.82437269 183.74975706 119.77005482 182.828125 113.5234375 C181.00693269 108.16698954 177.70988869 104.33387342 172.828125 101.5234375 C165.28221403 99.3432385 159.41770727 100.63426152 153.265625 105.5859375 Z M710.828125 100.5234375 C712.19755068 104.51759574 713.97117598 107.40676584 716.828125 110.5234375 C717.818125 110.8534375 718.808125 111.1834375 719.828125 111.5234375 C719.55029814 107.54125251 719.03539152 105.77433908 716.453125 102.6484375 C714.00238823 100.20883839 714.00238823 100.20883839 710.828125 100.5234375 Z " fill="#000000" transform="translate(164.171875,4.4765625)"/>
</svg>
